<svg xmlns="http://www.w3.org/2000/svg" version="1.0" width="200" height="200" viewBox="0 0 144.012 144.014" xml:space="preserve"><path d="m49.26 107.386-9.78 15.021a60.011 60.011 0 0 0 33.397 10.098 60.04 60.04 0 0 0 34.269-10.686l-9.295-13.684-48.591-.749z" style="fill:#b78a2d" transform="matrix(1.19458 0 0 1.203 -15.048 -15.39)"/><path d="m89.407 110.578-39.957-.563-7.98 11.897a58.458 58.458 0 0 0 31.446 9.133 58.427 58.427 0 0 0 32.151-9.592l-7.783-11.814-7.877.939z" style="fill:#2b2b88" transform="matrix(1.19458 0 0 1.203 -15.048 -15.39)"/><path d="m117.705 75.084 15.395.426c.031-.865.053-1.729.053-2.601 0-33.151-27.04-60.116-60.275-60.116-33.239 0-60.281 26.965-60.281 60.116 0 1.097.029 2.187.09 3.272l15.727-.637 89.291-.46z" style="fill:#b78a2d" transform="matrix(1.19458 0 0 1.203 -15.048 -15.39)"/><path d="M14.172 72.746c0 .519.004 1.047.023 1.587 2.264-.099 9.418-.387 11.678-.475-.007-.376 93.92-.702 93.912-.502 2.258.063 9.428.263 11.689.319.002-.311.014-.629.014-.93 0-32.257-26.313-58.495-58.66-58.495-32.341.001-58.656 26.238-58.656 58.496z" style="fill:#2b2b88" transform="matrix(1.19458 0 0 1.203 -15.048 -15.39)"/><path d="M27.522 72.909c0 24.917 20.348 45.187 45.355 45.187 25.005 0 45.346-20.27 45.346-45.187 0-24.919-20.341-45.188-45.346-45.188-25.007 0-45.355 20.269-45.355 45.188z" style="fill:#b78a2d" transform="matrix(1.19458 0 0 1.203 -15.048 -15.39)"/><path d="m113.378 75.941.047-7.652-3.078.069a37.343 37.343 0 0 0-1.602-7.156l2.725-1.113-2.895-7.085-2.916 1.292a37.967 37.967 0 0 0-4.225-5.934l2.197-2.184-5.395-5.429-2.307 2.427a37.036 37.036 0 0 0-6.117-3.854l1.24-2.983-7.059-2.945-1.241 3.234a37.472 37.472 0 0 0-7.092-1.207l.01-3.34-7.654-.014.094 3.547a37.93 37.93 0 0 0-6.989 1.574l-1.293-3.141-7.076 2.923 1.468 3.271a37.68 37.68 0 0 0-5.861 4.108L45.95 41.94l-5.412 5.408 2.592 2.447a37.249 37.249 0 0 0-3.871 6.026l-3.132-1.348-3.025 7.027 3.404 1.349a36.695 36.695 0 0 0-1.207 6.545L32 69.352l-.095 7.652 3.441-.051a37.124 37.124 0 0 0 1.467 7.056l-3.016 1.21 2.839 7.104 3.14-1.359a37.775 37.775 0 0 0 4.074 5.953l-2.317 2.267 5.344 5.473 2.372-2.455a37.993 37.993 0 0 0 6.039 3.96l-1.259 2.953 7.039 2.999 1.229-3.116a37.366 37.366 0 0 0 7.119 1.344l-.035 3.146 7.654.073-.063-3.281a37.532 37.532 0 0 0 7.12-1.473l1.146 2.835 7.096-2.869-1.281-2.926a37.941 37.941 0 0 0 6.031-4.121l2.098 2.125 5.447-5.366-2.252-2.16a36.952 36.952 0 0 0 4.01-6.14l2.674 1.129 2.973-7.052-2.838-1.105a37.396 37.396 0 0 0 1.299-7.232l2.883.016z" style="fill:#2b2b88" transform="matrix(1.19458 0 0 1.203 -15.048 -15.39)"/><path d="M107.675 72.909c0 19.142-15.58 34.65-34.798 34.65-19.225 0-34.81-15.509-34.81-34.65 0-19.137 15.585-34.647 34.81-34.647 19.218 0 34.798 15.51 34.798 34.647z" style="fill:#fff" transform="matrix(1.19458 0 0 1.203 -15.048 -15.39)"/><path d="M49.249 124.545c-.28-1.186-.699-2.346-.979-3.529-.108-.451-.289-.871-.703-1.133-.207-.131-.402-.227-.635-.123-.801.363-.234 1.23.149 1.645.569.631 1.302.85 2.138.744.512-.063 1.067-.34 1.063-.945-.013-.719-.769-1.197-.812-1.873-.043-.717.592-.627 1.104-.447l2.706 1.162m-1.469 3.942 1.86-5.336m0 6.11 1.854-5.336m-6.886-3.405s4.332 3.014 12.772 4.953m-2.636 5.417 1.396-5.648m-.694 2.706s-2.088-.691-2.09-.693c-.313-.104-.732-.119-1.027.029-.359.174-.461.729-.189 1.023.424.447 1.016-.457.678-.592m7.194-1.083-.236 2.943s.313 1.162 2.088 1.162h.313m.23-3.951-.23 5.5m-3.095-6.348s8.436 1.621 15.012.615m-8.668.311c.52.729 1.354 1.439 1.484 2.369.164 1.213-.977 1.412-1.949 1.271m-.851-1.394s.852 2.244 3.096 3.947m2.622-6.019c.004.832.172 1.797.172 2.627 0 .42.047 1.357-.412 1.588-.453.229-.957-.256-1.049-.67-.268-1.252 3.463-.781 4.242-.777m-.388-2.866.465 5.654m7.663-6.812 1.234 5.34m-.926-3.174-2.013.234s-2.178.115-2.016 1.393c0 0-.074 1.162 1.629.93l2.942-.389m-3.33-1.703 1.86 1.781m5.719.543s-2.473-.232-2.393-2.016c0 0 .076-1.857 1.703-1.629 0 0 .852.162.543 1.164 0 0 1.623-3.484 3.326-1.857 0 0 .852.934-.535 3.176m-12.387-3.099s9.208-.771 17.95-6.191m-3.941 2.4 1.547 2.789c.318.57-.344 1.406-.953 1.137-.766-.338-.301-1.121.18-1.449l3.25-1.391m-1.547-2.481 2.631 4.957m-9.061-2.014.703 2.166" style="fill:none;stroke:#fff;stroke-width:.5" transform="matrix(1.19458 0 0 1.203 -15.048 -15.39)"/><path d="M61.003 119.049a.457.457 0 0 1-.458.455.455.455 0 0 1-.461-.455.46.46 0 0 1 .919 0zm15.794 1.758a.449.449 0 0 1-.457.451.45.45 0 0 1-.455-.451.456.456 0 1 1 .912 0z" style="fill:#fff" transform="matrix(1.19458 0 0 1.203 -15.048 -15.39)"/><path d="M59.672 72.118c0 .916-.746 1.66-1.658 1.66-.914 0-1.66-.744-1.66-1.66a1.66 1.66 0 0 1 3.318 0z" style="fill:#2b2b88" transform="matrix(1.19458 0 0 1.203 -15.048 -15.39)"/><path d="M39.705 72.948c0 18.207 14.954 32.907 33.123 33.05L53.234 46.246c-8.2 6.028-13.529 15.744-13.529 26.702z" style="fill:#5ccae8" transform="matrix(1.19458 0 0 1.203 -15.048 -15.39)"/><path d="M91.405 45.521 73.39 106.068c18.038-.305 32.563-15.016 32.563-33.12.001-11.406-5.768-21.47-14.548-27.427z" style="fill:#ffe275" transform="matrix(1.19458 0 0 1.203 -15.048 -15.39)"/><path d="M72.828 39.826a32.977 32.977 0 0 0-18.038 5.341l18.335 56.179 17.007-56.639a32.951 32.951 0 0 0-17.304-4.881z" style="fill:#cf2027" transform="matrix(1.19458 0 0 1.203 -15.048 -15.39)"/><path style="fill:#b78a2d" d="m72.527 71.355-3.666-7.023 3.51-3.665 3.818 3.815-3.662 6.873z" transform="matrix(1.19458 0 0 1.203 -15.048 -15.39)"/><path style="fill:none;stroke:#fff;stroke-width:.38690001" d="m72.527 71.355-3.666-7.023 3.51-3.665 3.818 3.815-3.662 6.873z" transform="matrix(1.19458 0 0 1.203 -15.048 -15.39)"/><path style="fill:#b78a2d" d="m66.729 64.181-5.197-3.514 5.497-3.664 5.498 3.664-5.798 3.514z" transform="matrix(1.19458 0 0 1.203 -15.048 -15.39)"/><path style="fill:none;stroke:#fff;stroke-width:.38690001" d="m66.729 64.181-5.197-3.514 5.497-3.664 5.498 3.664-5.798 3.514z" transform="matrix(1.19458 0 0 1.203 -15.048 -15.39)"/><path style="fill:#b78a2d" d="m71.912 60.057-7.017-4.58 2.902-8.7 3.41 5.957.705 7.323z" transform="matrix(1.19458 0 0 1.203 -15.048 -15.39)"/><path style="fill:none;stroke:#fff;stroke-width:.38690001" d="m71.912 60.057-7.017-4.58 2.902-8.7 3.41 5.957.705 7.323z" transform="matrix(1.19458 0 0 1.203 -15.048 -15.39)"/><path style="fill:#b78a2d" d="m69.115 49.135 3.412-4.953 3.233 5.19-2.246 4.149-1.631.458-2.768-4.844z" transform="matrix(1.19458 0 0 1.203 -15.048 -15.39)"/><path style="fill:none;stroke:#fff;stroke-width:.38690001" d="m69.115 49.135 3.412-4.953 3.233 5.19-2.246 4.149-1.631.458-2.768-4.844z" transform="matrix(1.19458 0 0 1.203 -15.048 -15.39)"/><path style="fill:#b78a2d" d="m76.496 56.235 6.71 4.432-5.181 3.514-6.91-4.469 5.381-3.477z" transform="matrix(1.19458 0 0 1.203 -15.048 -15.39)"/><path style="fill:none;stroke:#fff;stroke-width:.38690001" d="m76.496 56.235 6.71 4.432-5.181 3.514-6.91-4.469 5.381-3.477z" transform="matrix(1.19458 0 0 1.203 -15.048 -15.39)"/><path style="fill:#b78a2d" d="M73.285 90.211h-1.607V69.785h1.607v20.426z" transform="matrix(1.19458 0 0 1.203 -15.048 -15.39)"/><path style="fill:none;stroke:#fff;stroke-width:.38690001" d="M73.285 90.211h-1.607V69.785h1.607v20.426z" transform="matrix(1.19458 0 0 1.203 -15.048 -15.39)"/><path d="m50.417 57.891 4.017 5.065 3.317 8.554-1.92 7.505-4.015 6.114-7.679-5.941 5.056-5.232 4.892-9.603m3.491 7.853-12.744-5.938 4.361-9.247m1.052 16.934 4.714 5.582m-10.998 0 3.664 8.73.502.523 6.655 6.981 10.476 4.539 1.219.351-3.664-9.947-16.41-2.096m6.115-2.446 2.619 10.644" style="fill:none;stroke:#fff;stroke-width:.5" transform="matrix(1.19458 0 0 1.203 -15.048 -15.39)"/><path d="M46.403 66.096a1.918 1.918 0 1 1-3.839 0c0-1.058.86-1.92 1.921-1.92 1.058 0 1.918.862 1.918 1.92zm18.158 24.089a1.922 1.922 0 0 1-3.846 0c0-1.062.863-1.917 1.922-1.917 1.064 0 1.924.855 1.924 1.917zm3.486 10.304a1.92 1.92 0 1 1-3.839-.005 1.92 1.92 0 0 1 3.839.005zM51.465 56.496a1.92 1.92 0 1 1-3.84 0 1.919 1.919 0 1 1 3.84 0z" style="fill:#fff" transform="matrix(1.19458 0 0 1.203 -15.048 -15.39)"/><path d="M56.529 63.566a1.66 1.66 0 1 1-3.317 0 1.66 1.66 0 0 1 3.317 0zm-5.064 9.778a1.657 1.657 0 1 1-3.313-.001 1.657 1.657 0 0 1 3.313.001zm5.764 6.633a1.657 1.657 0 1 1-3.316 0 1.658 1.658 0 1 1 3.316 0zm-11.347-.874a1.66 1.66 0 0 1-3.318 0c0-.92.742-1.658 1.658-1.658.916 0 1.66.738 1.66 1.658zm7.682 6.286a1.66 1.66 0 1 1-1.664-1.661c.918 0 1.664.741 1.664 1.661zm-4.015 3.139c0 .916-.742 1.656-1.658 1.656a1.657 1.657 0 1 1 0-3.315c.916 0 1.658.743 1.658 1.659zm7.504 7.679a1.657 1.657 0 1 1-3.314.006 1.657 1.657 0 0 1 3.314-.006z" style="fill:#2b2b88" transform="matrix(1.19458 0 0 1.203 -15.048 -15.39)"/><path style="fill:#b78a2d" d="m72.984 54.258 3.967-7.179 3.485 8.213-7.891 5.468.439-6.502z" transform="matrix(1.19458 0 0 1.203 -15.048 -15.39)"/><path style="fill:none;stroke:#fff;stroke-width:.38690001" d="m72.984 54.258 3.967-7.179 3.485 8.213-7.891 5.468.439-6.502z" transform="matrix(1.19458 0 0 1.203 -15.048 -15.39)"/><path style="fill:#b78a2d" d="m71.912 59.673-2.131-5.193 2.746-3.511 2.748 3.511-2.748 5.803-.615-.61z" transform="matrix(1.19458 0 0 1.203 -15.048 -15.39)"/><path style="fill:none;stroke:#fff;stroke-width:.38690001" d="m71.912 59.673-2.131-5.193 2.746-3.511 2.748 3.511-2.748 5.803-.615-.61z" transform="matrix(1.19458 0 0 1.203 -15.048 -15.39)"/><path d="m23.239 70.331.026-.399c.013-.253-.059-.435-.212-.548-.154-.113-.437-.184-.836-.205-.418-.025-.713.011-.877.117-.165.101-.25.305-.27.613l-.02.287 2.189.135zm-3.11-.189.022-.322c.014-.249-.043-.42-.18-.521-.137-.101-.389-.163-.764-.188-.334-.021-.572.015-.697.103-.137.084-.21.257-.224.515l-.018.299 1.861.114m4.032 1.19-6.883-.418.097-1.56c.029-.452.183-.773.473-.975.287-.205.715-.286 1.281-.253.461.029.809.103 1.056.226.241.125.38.296.419.512.061-.245.234-.422.515-.543.283-.122.649-.166 1.103-.139.731.044 1.257.193 1.584.448.335.253.48.627.45 1.117l-.095 1.585m.274-3.688-6.847-.81.113-.961 6.846.809-.112.962zm-3.555-3.396.095-.548c.051-.276.011-.481-.112-.615-.132-.136-.386-.238-.765-.305-.334-.063-.578-.042-.74.052-.154.092-.263.295-.315.603l-.086.47 1.923.343zm3.755 1.633-6.783-1.213.303-1.719c.092-.517.304-.87.621-1.048.317-.18.79-.213 1.414-.103.443.082.777.208 1.01.37.233.171.347.376.349.623.241-.426.789-.577 1.652-.443.038.009.066.017.089.021l.902.129c.258.038.465.052.629.038.162-.008.302-.05.429-.117l-.205 1.142a2.806 2.806 0 0 1-.41-.011c-.158-.01-.375-.046-.658-.09l-.712-.117-.181-.029c-.396-.071-.679-.059-.844.046-.172.101-.294.345-.359.73l-.064.324 2.984.535-.166.932m.725-3.831-6.677-1.717.245-.938 5.536 1.423.439-1.714 1.138.294-.681 2.652zm-1.455-5.009.258-.787-2.875-.526 2.617 1.313zm2.166 2.204-6.153-3.314.414-1.237 6.916 1.074-.335.991-1.727-.309-.356 1.063 1.559.791-.318.941m1.997-5.43-6.302-2.786.392-.89 6.301 2.789-.391.887zm.708-1.623-6.119-3.166.459-.894 4.906 1.005-4.289-2.192.415-.813 6.122 3.162-.455.887-4.916-1 4.297 2.191-.42.82zm-.22-4.742.517-.831.375.234c.361.223.625.343.795.356.173.012.312-.064.419-.231.102-.174.127-.34.069-.505-.059-.163-.201-.317-.43-.459a1.218 1.218 0 0 0-.507-.183c-.169-.017-.413.02-.739.103l-.658.18c-.565.16-.984.221-1.27.185-.277-.036-.58-.153-.912-.358-.49-.305-.808-.656-.951-1.053-.141-.396-.09-.788.158-1.18.254-.411.598-.636 1.033-.67.434-.038.926.119 1.483.464a1.91 1.91 0 0 1 .205.138l-.488.784-.157-.1c-.322-.196-.572-.3-.761-.303-.181-.008-.33.078-.446.254a.443.443 0 0 0-.041.415c.059.14.175.269.358.382.25.153.628.153 1.145-.003h.007l.691-.201c.481-.149.889-.201 1.214-.165.322.041.68.184 1.07.426.53.331.869.698 1.012 1.109.14.412.084.832-.184 1.257-.281.451-.641.69-1.077.719-.439.027-.972-.149-1.587-.538a4.683 4.683 0 0 1-.321-.213l-.022-.013zm4.525-2.545-4.651-3.383-.662.914-.924-.668 1.899-2.62.927.67-.662.911 4.651 3.381-.578.795zm1.517-2.016-5.362-4.333.618-.757 5.352 4.337-.608.753zm1.626-1.947-4.28-3.844-.756.842-.845-.766 2.161-2.403.85.762-.756.839 4.279 3.842-.653.728zm-3.098-6.814.7-.67 3.223 3.357c.367.385.649.611.854.68.199.068.396.017.578-.164.184-.174.239-.356.177-.564-.063-.208-.283-.505-.656-.893l-3.207-3.345.69-.66 3.295 3.432c.319.335.541.592.658.772.121.182.2.365.246.546.066.271.059.53-.029.775a1.69 1.69 0 0 1-.462.7c-.433.417-.859.585-1.269.508-.412-.078-.912-.423-1.507-1.031l-3.291-3.443zm8.292 1.733-3.666-4.436-.873.718-.719-.876 2.493-2.059.724.878-.867.715 3.664 4.432-.756.628zm1.938-1.57-4.024-5.598 2.184-1.566.674.934-1.396 1.002.927 1.287 1.296-.934.637.889-1.299.929 1.109 1.545 1.431-1.026.674.949-2.213 1.589zm3.221-6.26c.555.985.952 1.583 1.185 1.787.229.206.467.244.696.109.239-.132.328-.345.272-.642-.059-.302-.365-.95-.934-1.944-.561-.996-.953-1.598-1.188-1.801-.23-.208-.458-.243-.697-.111-.235.131-.318.348-.259.65.055.306.36.954.925 1.952zm-.87.489a16.75 16.75 0 0 1-.787-1.567c-.172-.404-.263-.731-.271-.98-.017-.344.027-.629.145-.849.115-.217.32-.414.622-.583.299-.169.576-.246.821-.234.248.013.519.117.806.316.207.144.445.393.698.745.259.354.567.849.927 1.482.355.631.615 1.151.784 1.552.173.409.271.738.278.988.021.349-.03.63-.145.856-.115.22-.326.411-.626.579-.296.168-.575.249-.819.237-.246-.02-.516-.125-.802-.323-.207-.134-.44-.382-.7-.736-.259-.353-.567-.85-.931-1.483m5.262 1.027-2.928-6.237 2.479-1.164.477 1.02-1.599.749.687 1.471 1.513-.71.465.998-1.51.711 1.297 2.749-.881.413zm5.269-2.249-1.898-5.432-1.063.374-.381-1.073 3.057-1.07.373 1.076-1.064.371 1.903 5.428-.927.326zm2.362-.799-1.829-6.648 2.595-.711.3 1.111-1.658.457.426 1.529 1.543-.424.287 1.046-1.543.429.502 1.832 1.702-.468.305 1.125-2.63.722zm4.787-3.667.926-.183c.002.029.016.07.033.127.012.056.02.101.029.131.154.783.141 1.386-.029 1.811-.18.428-.525.693-1.045.797a1.48 1.48 0 0 1-.65 0 1.24 1.24 0 0 1-.532-.298c-.22-.199-.407-.499-.56-.893-.152-.395-.328-1.102-.531-2.118a21.66 21.66 0 0 1-.274-1.675c-.028-.416-.024-.739.022-.959.074-.337.203-.593.384-.776.176-.174.419-.297.739-.363.518-.101.936.003 1.244.312.305.312.537.861.697 1.65l-.924.185-.035-.163c-.074-.365-.17-.628-.296-.789-.125-.162-.284-.223-.467-.187-.229.043-.364.2-.397.464-.031.267.065.962.287 2.085.245 1.216.428 1.952.564 2.197.134.249.313.348.541.302.215-.042.344-.175.391-.396.043-.226.01-.617-.102-1.17l-.015-.091zm2.049 2.111-.793-6.847.957-.111.314 2.683 1.322-.154-.312-2.683.965-.113.799 6.845-.963.113-.362-3.104-1.324.155.365 3.102-.968.114zm4.009-.434-.23-6.89.998-.035 1.527 4.774-.191-4.818.92-.032.232 6.887-.994.037-1.531-4.78.191 4.824-.922.033zm5.067-3.501c-.051 1.132-.039 1.846.051 2.146.088.296.268.454.541.465.266.011.455-.124.564-.406.113-.282.191-.996.248-2.138.055-1.144.041-1.864-.049-2.161-.086-.293-.268-.447-.529-.462-.27-.015-.461.126-.574.413-.113.287-.2 1.004-.252 2.143zm-.991-.044a14.54 14.54 0 0 1 .16-1.749c.07-.431.172-.753.297-.974.164-.302.354-.517.57-.642.215-.125.49-.176.834-.165.342.02.621.098.82.243.207.145.377.376.521.696.098.231.158.568.186 1.004.037.434.037 1.02 0 1.744a16.88 16.88 0 0 1-.158 1.735c-.074.435-.17.767-.289.986-.172.305-.359.517-.574.642-.217.128-.502.178-.84.166-.348-.018-.619-.101-.818-.244-.207-.142-.377-.376-.51-.697-.102-.223-.174-.556-.203-.993-.033-.438-.029-1.024.004-1.752m3.907 3.668.832-6.841.963.117-.694 5.675 1.758.213-.144 1.168-2.715-.332zm4.793-2.791c-.223 1.11-.314 1.821-.268 2.13.039.304.193.485.459.539.258.052.469-.053.62-.314.148-.266.342-.958.563-2.08.223-1.123.314-1.835.275-2.145-.045-.302-.199-.485-.463-.536-.264-.049-.469.058-.622.323-.16.268-.347.961-.564 2.083zm-.977-.195c.145-.716.279-1.285.412-1.701.137-.42.285-.725.439-.919.209-.277.426-.463.658-.554.235-.088.517-.1.854-.037.342.068.594.191.773.36.184.174.322.427.414.765.057.243.072.584.037 1.022a14.681 14.681 0 0 1-.266 1.723 15.417 15.417 0 0 1-.412 1.697c-.139.419-.281.728-.43.931-.215.274-.438.459-.664.551-.233.087-.515.101-.858.037-.338-.071-.592-.188-.773-.36-.182-.175-.314-.426-.396-.766-.072-.236-.092-.576-.055-1.013.033-.442.123-1.019.267-1.736m5.802 4.907.141-.745c-.195.291-.387.479-.594.568-.205.094-.459.094-.746.011-.535-.151-.83-.521-.896-1.107-.066-.585.105-1.582.498-2.981.193-.653.365-1.175.527-1.552.168-.379.332-.662.51-.848.205-.225.428-.374.684-.436.248-.065.539-.052.863.04.535.157.883.434 1.045.849.164.407.141.97-.057 1.684l-.053.169-.877-.25.023-.071c.113-.399.145-.717.088-.953-.055-.237-.188-.386-.412-.448-.275-.081-.502.005-.686.25-.178.247-.438.965-.777 2.149-.264.939-.398 1.582-.389 1.922.004.345.133.549.381.625.254.07.459.008.633-.185.16-.195.326-.561.479-1.095l.064-.226-.65-.187.301-1.057 1.563.443-1.035 3.61-.628-.179zm2.248.762 1.023-2.739.098-4.203 1.016.384-.17 2.701 1.646-2.15.987.368-2.659 3.245-1.025 2.737-.916-.343zm7.709-1.778c.178-.06.326-.137.441-.231a1.02 1.02 0 0 0 .279-.333c.074-.148.109-.273.098-.377a.288.288 0 0 0-.166-.231.323.323 0 0 0-.291-.011c-.09.046-.17.14-.244.278a.389.389 0 0 0-.041.125c-.01.058-.018.114-.027.178l-.049.602zm-1.092 3.311.082-2.055a1.401 1.401 0 0 0-.543.28 1.516 1.516 0 0 0-.391.5c-.148.28-.205.548-.186.8.025.256.117.428.293.516a.58.58 0 0 0 .318.065c.117-.003.257-.04.427-.106m-.103 1.379.047-.467a1.455 1.455 0 0 1-.631.149 1.404 1.404 0 0 1-.625-.173 1.263 1.263 0 0 1-.715-.99c-.063-.45.039-.956.33-1.521a2.6 2.6 0 0 1 .697-.868c.273-.211.66-.4 1.158-.557a4.68 4.68 0 0 1 .082-.853 2.2 2.2 0 0 1 .217-.616c.186-.378.43-.626.736-.76a.987.987 0 0 1 .898.035c.324.165.52.397.592.69.072.29.01.626-.182 1.002a2.322 2.322 0 0 1-.615.767 2.142 2.142 0 0 1-.832.424l-.092 1.546a4.397 4.397 0 0 0 .61-.908l.051-.1.709.365a6.435 6.435 0 0 1-.688 1.085c-.234.297-.479.54-.744.716l-.088 1.511-.915-.477m4.185-.359.813.548-.248.366c-.242.351-.367.613-.385.781-.023.174.047.314.211.423.174.116.338.145.502.091.166-.051.324-.188.473-.411.117-.171.188-.336.207-.502.018-.163-.008-.408-.078-.739l-.154-.668c-.139-.568-.184-.99-.139-1.268.045-.282.178-.581.396-.904.324-.478.682-.783 1.084-.908.404-.126.793-.061 1.176.196.4.274.607.622.633 1.059.018.437-.152.925-.525 1.47-.033.055-.063.094-.086.125l-.057.071-.771-.517.111-.151c.205-.313.318-.562.338-.75.01-.184-.072-.337-.246-.457a.441.441 0 0 0-.414-.056c-.139.049-.268.166-.393.343-.158.24-.172.62-.043 1.139 0 .006.004.009.004.011l.172.698c.133.487.172.896.119 1.216-.047.322-.205.678-.461 1.056-.352.517-.736.842-1.15.971-.41.131-.828.051-1.25-.229-.436-.296-.67-.664-.678-1.104-.014-.438.188-.963.598-1.567a3.44 3.44 0 0 1 .227-.312l.014-.021zm4.936 3.525.736.584c-.02.023-.045.06-.08.105-.029.049-.057.083-.078.112-.492.622-.959 1.007-1.402 1.146-.43.146-.859.055-1.277-.274-.191-.154-.336-.319-.416-.496a1.21 1.21 0 0 1-.125-.6c.012-.295.115-.633.314-1.003.207-.375.625-.966 1.279-1.779.434-.557.805-.986 1.096-1.288.291-.3.543-.501.744-.605.305-.162.58-.233.836-.213.252.018.502.125.752.325.418.329.607.711.574 1.148-.043.433-.311.97-.805 1.604l-.744-.585.102-.132c.236-.293.373-.536.41-.739a.444.444 0 0 0-.154-.475c-.182-.144-.391-.144-.613 0-.221.146-.693.671-1.4 1.57-.775.971-1.209 1.587-1.307 1.849-.107.263-.068.465.115.611.17.137.352.148.557.038.201-.108.473-.385.83-.831l.056-.072zm-.268 2.973 4.578-5.151.723.642-4.578 5.155-.723-.646zm1.334 1.185 4.838-4.906 1.912 1.887-.805.819-1.224-1.207-1.112 1.129 1.139 1.125-.771.776-1.137-1.124-1.33 1.352 1.242 1.238-.816.827-1.936-1.916zm2.358 2.349 5.193-4.53.662.762-2.742 4.188 3.617-3.185.605.69-5.193 4.53-.658-.749 2.74-4.207-3.623 3.195-.601-.694zm5.818 3.277.564.757-.1.08c-.047.04-.082.065-.109.086-.641.474-1.188.724-1.648.745-.461.028-.852-.172-1.168-.6a1.51 1.51 0 0 1-.277-.588 1.26 1.26 0 0 1 .045-.607c.082-.286.27-.579.57-.885.291-.312.852-.773 1.688-1.394a17.13 17.13 0 0 1 1.389-.952c.368-.214.661-.348.88-.394.336-.077.625-.071.859.012.242.083.457.25.648.514.313.424.395.844.25 1.255-.15.408-.545.856-1.193 1.335l-.559-.755.131-.101c.295-.223.492-.421.588-.604.084-.184.08-.352-.035-.503-.137-.185-.332-.236-.58-.157-.264.083-.845.465-1.771 1.153-.996.736-1.58 1.216-1.746 1.44-.164.229-.178.438-.039.623.129.178.305.238.527.183.219-.056.555-.25 1.01-.59l.076-.053zm-1.031 2.772 5.815-3.694 1.44 2.266-.967.618-.918-1.451-1.34.85.853 1.351-.918.585-.855-1.353-1.61 1.019.948 1.485-.987.625-1.461-2.301zm.586 3.502.404-.229c.088.117.219.174.385.177.172.004.354-.051.553-.166l.057-.031-.23-.414 1.081-.607.428.757-1.09.616c-.321.185-.632.271-.919.249-.291-.018-.517-.136-.669-.352zm6.68 1.565.168.373c.131.277.289.443.488.491.189.045.457-.006.809-.162.344-.158.566-.32.65-.483.086-.166.07-.394-.063-.68l-.172-.388-1.88.849zm-3.918.733 6.283-2.831.699 1.549c.209.469.221.872.047 1.199-.191.332-.604.64-1.23.928-.623.277-1.135.377-1.533.292-.406-.083-.711-.351-.916-.802l-.289-.651-2.66 1.202-.401-.886m1.475 3.394 6.435-2.469.348.905-6.435 2.471-.348-.907zm.644 1.664 6.551-2.12.299.917-5.439 1.765.546 1.681-1.119.36-.838-2.603zm3.914 3.451.193.805 2.707-1.098-2.9.293zm-3.019-.698 6.971-.501.314 1.266-6.41 2.798-.252-1.017 1.623-.665-.264-1.089-1.744.171-.238-.963m.945 3.951 6.803-1.099.16.995-4.541 2.108 4.754-.797.148.91-6.806 1.1-.16-.983 4.549-2.122-4.758.8-.149-.912zm.59 4.011 6.854-.688.101.96-6.863.692-.092-.964z" style="fill:#fff" transform="matrix(1.19458 0 0 1.203 -15.048 -15.39)"/><path d="m97.708 60.892 1.375-4.887h-.756s-.922 7.323-5.656 9.924c0 0 .916 2.593-.305 4.58l-4.275 13.888-2.439 2.441-1.977 5.625 2.209.779.377-.753s1.07-1.681 1.68-.155l-.457 1.371 1.98.767.764-3.054.461-1.679.15-3.815 4.889-15.263 2.6-3.208c-.001 0-1.38-3.659-.62-6.561zm-21.976 41.979 1.68-.615.76.153.766-1.065.301.605 1.219-1.222.461.46c1.738-1.153 4.292-6.551 4.556-7.119l-2.078-.749c-1.649 5.259-7.665 9.552-7.665 9.552zm6.866-2.143 1.835-.915v.763l1.063-.913.309.76c1.184-.916 2.99-4.102 3.547-5.125l-2.111-.758c-.998 2.869-4.643 6.188-4.643 6.188z" style="fill:#2b2b88" transform="matrix(1.19458 0 0 1.203 -15.048 -15.39)"/><path d="M104.729 77.529s-5.338-1.984-9.609-8.397m-9.012 2.748s8.396 0 11.451-2.593m-10.38 1.221s-.611 7.021-3.361 11.449m-.612-1.68s3.207 1.372 5.801 7.783m-.758-.304 1.674-.918 8.094-3.049m-1.221 1.827s.764-7.629 1.83-9.007m.457 1.682s-4.119-2.898-5.496-5.801m-3.199 1.22-2.598 7.177m-.307-1.53 2.439 3.973m-.755-.457s1.98-.916 4.574-.61m-.916.913 2.295-5.033m-3.053-1.682 2.131 3.358m-5.191-4.735 5.652-1.832m-5.463 4.576 4.846-.451" style="fill:none;stroke:#b38d06;stroke-width:.77350003" transform="matrix(1.19458 0 0 1.203 -15.048 -15.39)"/><path d="M98.769 123.377s-.029-1.889 3.111-.529" style="fill:none;stroke:#fff;stroke-width:.5" transform="matrix(1.19458 0 0 1.203 -15.048 -15.39)"/></svg>