<svg xmlns="http://www.w3.org/2000/svg" data-name="Layer 1" viewBox="0 0 24 24" id="professions-and-jobs"><path d="M19.9 16H22V2H2v14h8.1a5 5 0 0 0 7.65 3.17l3.54 3.54 1.41-1.41-3.54-3.54A5 5 0 0 0 19.9 16ZM4 14V4h16v10h-.1a5 5 0 0 0-.9-2v-2h-4a5 5 0 0 0-2.68.79 4 4 0 0 0-.94-1A3 3 0 0 0 12 8a3 3 0 0 0-6 0 3 3 0 0 0 .62 1.8A4 4 0 0 0 5 13v1Zm4-6a1 1 0 1 1 1 1 1 1 0 0 1-1-1Zm-1 5a2 2 0 0 1 3.84-.77A5 5 0 0 0 10.1 14H7Zm8 5a3 3 0 1 1 3-3 3 3 0 0 1-3 3Z"></path><path d="M14 6h5v2h-5z"></path></svg>